<svg width="22" height="29" viewBox="0 0 22 29" fill="none" xmlns="http://www.w3.org/2000/svg">
<path d="M20.4496 19.704L20.2576 19.896C20.215 19.96 20.1616 20.024 20.0976 20.088C20.055 20.152 20.0016 20.2053 19.9376 20.248C19.9163 20.2907 19.863 20.3547 19.7776 20.44C19.735 20.4827 19.703 20.504 19.6816 20.504L19.3936 20.792C19.3083 20.8773 19.255 20.9413 19.2336 20.984C19.191 21.1547 19.1483 21.336 19.1056 21.528C19.063 21.72 19.0203 21.9013 18.9776 22.072C18.935 22.2427 18.8923 22.4133 18.8496 22.584C18.807 22.7547 18.7643 22.9253 18.7216 23.096L18.3376 24.472C18.3163 24.5573 18.2843 24.6533 18.2416 24.76C18.2203 24.8667 18.1883 24.9733 18.1456 25.08C18.0816 25.2933 17.9856 25.496 17.8576 25.688L17.7616 25.784C17.7403 25.8053 17.719 25.8267 17.6976 25.848C17.6763 25.8693 17.655 25.8907 17.6336 25.912C17.6123 25.976 17.591 26.04 17.5696 26.104C17.5483 26.1893 17.5163 26.264 17.4736 26.328C17.431 26.3707 17.3776 26.3707 17.3136 26.328C17.1643 26.2213 17.1003 26.1467 17.1216 26.104C17.143 26.0613 17.175 26.04 17.2176 26.04C17.2603 26.0613 17.239 26.0933 17.1536 26.136L17.0256 26.2C17.0043 26.2213 16.983 26.2427 16.9616 26.264C16.9616 26.2853 16.9616 26.296 16.9616 26.296C16.8976 26.3813 16.8336 26.4667 16.7696 26.552C16.727 26.6587 16.6736 26.7547 16.6096 26.84C16.5883 26.8613 16.5563 26.8933 16.5136 26.936C16.471 26.9787 16.4176 27 16.3536 27C16.2896 27 16.2363 26.968 16.1936 26.904L16.1296 26.84C16.087 26.7547 16.0443 26.6693 16.0016 26.584C15.9803 26.4987 15.9483 26.4133 15.9056 26.328C15.9056 26.3067 15.895 26.2853 15.8736 26.264C15.8736 26.264 15.8736 26.2533 15.8736 26.232C15.7243 25.8267 15.5643 25.4213 15.3936 25.016C15.2443 24.632 15.0736 24.248 14.8816 23.864C14.839 23.7787 14.807 23.7253 14.7856 23.704C14.7643 23.704 14.743 23.6933 14.7216 23.672C14.7003 23.672 14.6683 23.672 14.6256 23.672C14.5403 23.672 14.4976 23.672 14.4976 23.672C14.4763 23.9493 14.5083 24.2907 14.5936 24.696C14.7003 25.1013 14.7536 25.4533 14.7536 25.752C14.775 26.0507 14.647 26.1893 14.3696 26.168C14.1136 26.1467 13.9856 25.9867 13.9856 25.688C13.9856 25.4107 14.0283 25.08 14.1136 24.696C14.2203 24.3333 14.263 24.0133 14.2416 23.736C14.2203 23.864 14.1776 23.9813 14.1136 24.088C14.0496 24.1947 13.9963 24.3013 13.9536 24.408L13.7296 24.792C13.7083 24.8133 13.6763 24.8347 13.6336 24.856C13.6123 24.8987 13.5803 24.9413 13.5376 24.984L13.5056 25.016C13.4203 25.0587 13.3776 25.08 13.3776 25.08C13.3563 25.2933 13.3456 25.5173 13.3456 25.752C13.367 25.9867 13.3776 26.2213 13.3776 26.456C13.335 26.1147 13.239 25.9333 13.0896 25.912C12.9616 25.8693 12.8763 25.9333 12.8336 26.104C12.8336 25.8907 12.8336 25.6773 12.8336 25.464C12.855 25.272 12.855 25.08 12.8336 24.888C12.8123 24.888 12.7803 24.8773 12.7376 24.856C12.7163 24.8347 12.7163 24.824 12.7376 24.824L12.6096 24.696L12.2256 24.28C12.0976 24.1733 11.9696 24.0667 11.8416 23.96C11.735 23.8533 11.5963 23.7253 11.4256 23.576C11.255 23.448 11.1803 23.384 11.2016 23.384C11.2443 23.4053 11.2763 23.416 11.2976 23.416C11.319 23.4373 11.2336 23.4053 11.0416 23.32C10.999 23.3627 10.9776 23.4373 10.9776 23.544C10.999 23.6507 11.0096 23.704 11.0096 23.704C11.0096 23.704 10.967 23.576 10.8816 23.32C8.81229 23.2773 6.97763 22.936 5.37763 22.296C3.79896 21.6347 2.57229 20.6 1.69763 19.192C1.33496 18.5947 1.05763 17.9653 0.865625 17.304C0.801625 17.176 0.737625 17.016 0.673625 16.824C0.673625 16.7813 0.662958 16.7493 0.641625 16.728C0.641625 16.7067 0.641625 16.6853 0.641625 16.664C0.556292 16.344 0.492292 15.928 0.449625 15.416C0.406958 14.8827 0.385625 14.36 0.385625 13.848C0.385625 13.3147 0.385625 12.888 0.385625 12.568C0.385625 12.2693 0.374958 11.864 0.353625 11.352C0.353625 10.8187 0.364292 10.2747 0.385625 9.72C0.406958 9.16533 0.438958 8.696 0.481625 8.312C0.502958 8.20533 0.513625 8.12 0.513625 8.056C0.513625 7.97067 0.524292 7.88533 0.545625 7.8C0.545625 7.77867 0.545625 7.768 0.545625 7.768C0.566958 7.74667 0.577625 7.72533 0.577625 7.704C0.684292 7.02133 0.844292 6.392 1.05763 5.816C1.29229 5.21867 1.58029 4.67467 1.92163 4.184C2.04963 3.94933 2.24163 3.704 2.49763 3.448C3.45763 2.38133 4.68429 1.592 6.17763 1.08C7.67096 0.546665 9.33496 0.279999 11.1696 0.279999H11.9376C12.0016 0.279999 12.055 0.290665 12.0976 0.311998C13.847 0.397332 15.4896 0.759999 17.0256 1.4C18.5616 2.01867 19.7776 2.95733 20.6736 4.216C20.8443 4.408 20.983 4.62133 21.0896 4.856C21.2176 5.09067 21.3243 5.336 21.4096 5.592C21.559 5.93333 21.6763 6.296 21.7616 6.68C21.847 7.064 21.9003 7.448 21.9216 7.832C21.9216 7.85333 21.9216 7.90667 21.9216 7.992C21.943 8.056 21.9536 8.088 21.9536 8.088V8.12C21.9536 8.20533 21.9536 8.29067 21.9536 8.376C21.975 8.44 21.975 8.51467 21.9536 8.6C21.9323 8.62133 21.9216 8.65333 21.9216 8.696C21.9216 8.71733 21.911 8.74933 21.8896 8.792C21.847 8.83467 21.815 8.87733 21.7936 8.92L21.7616 8.952C21.719 9.016 21.655 9.09067 21.5696 9.176C21.5056 9.24 21.463 9.29333 21.4416 9.336C21.4416 9.37867 21.4203 9.4 21.3776 9.4C21.3563 9.4 21.335 9.37867 21.3136 9.336C21.3136 9.29333 21.2923 9.26133 21.2496 9.24C21.271 9.21867 21.2603 9.22933 21.2176 9.272C21.175 9.29333 21.143 9.304 21.1216 9.304C20.951 9.34667 20.823 9.41067 20.7376 9.496C20.6096 9.58133 20.503 9.688 20.4176 9.816C20.3323 9.944 20.2363 10.0613 20.1296 10.168C20.087 10.2107 20.0336 10.264 19.9696 10.328C19.927 10.392 19.8736 10.4453 19.8096 10.488C19.6816 10.5093 19.6176 10.456 19.6176 10.328C19.6176 10.2 19.5643 10.168 19.4576 10.232C19.4363 10.232 19.383 10.264 19.2976 10.328C19.2336 10.392 19.2016 10.424 19.2016 10.424C19.0736 10.5307 18.935 10.648 18.7856 10.776C18.6363 10.8827 18.4656 10.9467 18.2736 10.968C18.167 10.968 18.0603 10.9467 17.9536 10.904C17.8683 10.8613 17.7723 10.8293 17.6656 10.808C17.495 10.7227 17.3243 10.6373 17.1536 10.552C16.983 10.4667 16.8123 10.4027 16.6416 10.36C16.4496 10.296 16.247 10.2533 16.0336 10.232C15.8416 10.1893 15.6603 10.1147 15.4896 10.008C15.3616 9.92267 15.2336 9.83733 15.1056 9.752C14.9776 9.64533 14.8496 9.54933 14.7216 9.464C14.7003 9.44267 14.679 9.432 14.6576 9.432C14.6363 9.41067 14.6043 9.38933 14.5616 9.368C14.4976 9.304 14.455 9.272 14.4336 9.272C14.4336 9.272 14.423 9.29333 14.4016 9.336C14.4016 9.35733 14.4016 9.38933 14.4016 9.432C14.3803 9.45333 14.3696 9.48533 14.3696 9.528C14.3696 9.54933 14.3483 9.57067 14.3056 9.592C14.263 9.63467 14.2416 9.61333 14.2416 9.528C14.2203 9.50667 14.2096 9.48533 14.2096 9.464C14.2096 9.44267 14.199 9.42133 14.1776 9.4C14.1136 9.336 14.0816 9.272 14.0816 9.208C14.039 9.144 13.9963 9.06933 13.9536 8.984C13.847 8.87733 13.7616 8.76 13.6976 8.632C13.5696 8.376 13.463 8.13067 13.3776 7.896C13.2923 7.64 13.143 7.40533 12.9296 7.192C12.9083 7.14933 12.887 7.11733 12.8656 7.096C12.8443 7.07467 12.823 7.05333 12.8016 7.032C12.7803 7.032 12.759 7.032 12.7376 7.032C12.7376 7.01067 12.7376 7 12.7376 7C12.695 6.95733 12.663 6.936 12.6416 6.936C12.6416 6.936 12.6096 6.936 12.5456 6.936C12.4603 6.936 12.3963 6.92533 12.3536 6.904C12.2896 6.904 12.2363 6.91467 12.1936 6.936C12.1723 6.936 12.151 6.95733 12.1296 7C12.1083 7.02133 12.0763 7.02133 12.0336 7C12.0123 7 12.0016 6.97867 12.0016 6.936C11.8523 7.02133 11.735 7.14933 11.6496 7.32C11.5643 7.49067 11.479 7.64 11.3936 7.768C11.351 7.85333 11.2976 7.96 11.2336 8.088C11.1696 8.19467 11.0843 8.26933 10.9776 8.312C10.9563 8.33333 10.9243 8.35467 10.8816 8.376C10.8603 8.39733 10.8496 8.39733 10.8496 8.376C10.807 8.14133 10.7856 7.91733 10.7856 7.704C10.807 7.46933 10.7963 7.24533 10.7536 7.032C10.6896 7.11733 10.6256 7.20267 10.5616 7.288C10.519 7.37333 10.4656 7.45867 10.4016 7.544C10.3803 7.56533 10.327 7.608 10.2416 7.672C10.1776 7.736 10.1243 7.75733 10.0816 7.736C10.039 7.736 9.99629 7.71467 9.95363 7.672C9.86829 7.62933 9.80429 7.56533 9.76163 7.48C9.71896 7.37333 9.67629 7.288 9.63363 7.224C9.61229 7.18133 9.60163 7.13867 9.60163 7.096C9.60163 7.05333 9.58029 7.02133 9.53763 7L9.44163 7.096C9.37763 7.16 9.30296 7.256 9.21763 7.384C9.21763 7.40533 9.20696 7.416 9.18563 7.416C9.18563 7.416 9.18563 7.42667 9.18563 7.448C9.18563 7.46933 9.17496 7.48 9.15363 7.48C9.15363 7.48 9.15363 7.49067 9.15363 7.512C9.06829 7.64 8.99363 7.81067 8.92963 8.024C8.84429 8.30133 8.79096 8.568 8.76963 8.824V9.4C8.74829 9.69867 8.73763 10.008 8.73763 10.328C8.73763 10.6267 8.73763 10.9253 8.73763 11.224V13.24C8.73763 13.4533 8.73763 13.6667 8.73763 13.88C8.75896 14.072 8.76963 14.2747 8.76963 14.488C8.76963 14.5733 8.76963 14.6693 8.76963 14.776C8.79096 14.8613 8.80163 14.9573 8.80163 15.064C8.82296 15.0853 8.83363 15.1173 8.83363 15.16C8.83363 15.2027 8.84429 15.2453 8.86563 15.288C8.86563 15.352 8.87629 15.3947 8.89763 15.416C8.91896 15.5013 8.94029 15.5867 8.96163 15.672C9.00429 15.736 9.03629 15.8107 9.05763 15.896C9.24963 16.1733 9.54829 16.3973 9.95363 16.568C10.3803 16.7173 10.8283 16.8027 11.2976 16.824C11.7883 16.8453 12.215 16.7707 12.5776 16.6C12.6843 16.536 12.791 16.4613 12.8976 16.376C13.0043 16.2907 13.1003 16.1947 13.1856 16.088C13.271 15.9813 13.3456 15.8427 13.4096 15.672C13.4523 15.5653 13.4843 15.4693 13.5056 15.384C13.5483 15.2987 13.5803 15.2133 13.6016 15.128C13.6443 15.0213 13.687 14.9253 13.7296 14.84C13.7936 14.7547 13.8896 14.6587 14.0176 14.552C14.0603 14.5307 14.0923 14.52 14.1136 14.52C14.135 14.52 14.1563 14.5093 14.1776 14.488C14.2843 14.4453 14.391 14.424 14.4976 14.424C14.6256 14.4027 14.7536 14.392 14.8816 14.392C15.0096 14.392 15.1376 14.4027 15.2656 14.424C15.3936 14.424 15.511 14.424 15.6176 14.424H20.3216C20.3643 14.424 20.4923 14.424 20.7056 14.424C20.919 14.4027 21.1003 14.4027 21.2496 14.424C21.4416 14.424 21.6016 14.488 21.7296 14.616C21.8576 14.744 21.9323 14.872 21.9536 15C21.975 15.064 21.9856 15.1387 21.9856 15.224C21.9856 15.288 21.9856 15.3627 21.9856 15.448L21.8896 16.184C21.7403 17.2293 21.4096 18.1787 20.8976 19.032C20.791 19.2453 20.6416 19.4693 20.4496 19.704ZM12.8656 27.448C12.8443 27.2133 12.823 26.968 12.8016 26.712C12.7803 26.456 12.791 26.2533 12.8336 26.104C12.8336 26.3173 12.8336 26.5307 12.8336 26.744C12.8336 26.9787 12.8443 27.2133 12.8656 27.448ZM13.2176 28.088C13.175 28.2373 13.1643 28.248 13.1856 28.12C13.207 27.992 13.239 27.8 13.2816 27.544C13.3456 27.288 13.3776 27.032 13.3776 26.776C13.3776 26.9893 13.367 27.2027 13.3456 27.416C13.3243 27.6507 13.2816 27.8747 13.2176 28.088ZM12.8656 27.448C12.887 27.5547 12.8976 27.6613 12.8976 27.768C12.919 27.8747 12.9403 27.96 12.9616 28.024C12.8976 27.832 12.8656 27.64 12.8656 27.448Z" fill="url(#paint0_linear_133_2)"/>
<defs>
<linearGradient id="paint0_linear_133_2" x1="11" y1="-7" x2="11" y2="31" gradientUnits="userSpaceOnUse">
<stop stop-color="#FF8500"/>
<stop offset="1" stop-color="#F46A00"/>
</linearGradient>
</defs>
</svg>
