<svg width="33" height="33" viewBox="0 0 33 33" fill="none" xmlns="http://www.w3.org/2000/svg">
<circle cx="28.4306" cy="16.7538" r="4.12988" stroke="url(#paint0_linear_348_131)" stroke-width="0.878698"/>
<path d="M28.1958 18.9635C27.8714 18.9555 27.4428 18.9195 26.9101 18.8554V18.1645C27.2025 18.2166 27.4208 18.2506 27.565 18.2666C27.7812 18.3027 27.9915 18.3207 28.1958 18.3207V17.3234H28.0816C27.2486 17.3234 26.832 16.983 26.832 16.3022V16.0979C26.832 15.7895 26.9402 15.5572 27.1564 15.401C27.3727 15.2408 27.7192 15.1467 28.1958 15.1187V14.6861H28.7605V15.1066C29.193 15.1267 29.5675 15.1527 29.8839 15.1847V15.8276C29.3632 15.7635 28.9888 15.7294 28.7605 15.7254V16.6145H28.8386C29.2791 16.6145 29.5955 16.6967 29.7878 16.8609C29.98 17.0251 30.0761 17.2754 30.0761 17.6118V17.792C30.0761 18.1525 29.964 18.4248 29.7397 18.6091C29.5154 18.7893 29.189 18.8994 28.7605 18.9395V19.7445H28.1958V18.9635ZM28.1958 15.7314C28.0195 15.7434 27.8974 15.7695 27.8293 15.8095C27.7652 15.8496 27.7332 15.9177 27.7332 16.0138V16.3502C27.7332 16.5184 27.8874 16.6065 28.1958 16.6145V15.7314ZM28.7605 18.2907C29.0328 18.2466 29.169 18.1445 29.169 17.9843V17.6479C29.169 17.5477 29.139 17.4716 29.0789 17.4196C29.0228 17.3675 28.9167 17.3355 28.7605 17.3234V18.2907Z" fill="url(#paint1_linear_348_131)"/>
<circle cx="26.3998" cy="6.6" r="5.96538" stroke="url(#paint2_linear_348_131)" stroke-width="1.26923"/>
<path d="M26.0609 9.12498C25.5923 9.11341 24.9733 9.06135 24.2039 8.96879V7.97086C24.6262 8.04607 24.9415 8.09524 25.1497 8.11838C25.4621 8.17044 25.7658 8.19648 26.0609 8.19648V6.75599H25.896C24.6927 6.75599 24.091 6.26426 24.091 5.28079V4.98575C24.091 4.5403 24.2472 4.20477 24.5596 3.97915C24.872 3.74774 25.3724 3.61179 26.0609 3.5713V2.94651H26.8766V3.55394C27.5014 3.58287 28.0423 3.62047 28.4993 3.66675V4.59526C27.7472 4.5027 27.2063 4.45353 26.8766 4.44774V5.73203H26.9894C27.6257 5.73203 28.0828 5.85062 28.3604 6.08781C28.6381 6.325 28.777 6.68657 28.777 7.17252V7.43285C28.777 7.9535 28.615 8.34689 28.291 8.613C27.9671 8.87333 27.4956 9.03242 26.8766 9.09027V10.2531H26.0609V9.12498ZM26.0609 4.45642C25.8063 4.47377 25.6299 4.51138 25.5315 4.56923C25.439 4.62708 25.3927 4.72542 25.3927 4.86427V5.35021C25.3927 5.59319 25.6154 5.72046 26.0609 5.73203V4.45642ZM26.8766 8.15309C27.27 8.08945 27.4666 7.94193 27.4666 7.71053V7.22458C27.4666 7.07996 27.4233 6.97004 27.3365 6.89483C27.2555 6.81963 27.1022 6.77335 26.8766 6.75599V8.15309Z" fill="url(#paint3_linear_348_131)"/>
<circle cx="13.2" cy="19.8" r="11.9308" stroke="url(#paint4_linear_348_131)" stroke-width="2.53846"/>
<path d="M12.5212 24.8499C11.584 24.8268 10.346 24.7227 8.80713 24.5375V22.5417C9.65175 22.6921 10.2823 22.7905 10.6989 22.8367C11.3236 22.9409 11.9311 22.9929 12.5212 22.9929V20.112H12.1914C9.78481 20.112 8.58151 19.1285 8.58151 17.1616V16.5715C8.58151 15.6806 8.89391 15.0095 9.5187 14.5583C10.1435 14.0955 11.1443 13.8236 12.5212 13.7426V12.493H14.1526V13.7079C15.4021 13.7657 16.4839 13.8409 17.398 13.9335V15.7905C15.8939 15.6054 14.8121 15.507 14.1526 15.4955V18.064H14.3782C15.6509 18.064 16.5649 18.3012 17.1203 18.7756C17.6757 19.25 17.9534 19.9731 17.9534 20.945V21.4657C17.9534 22.507 17.6294 23.2938 16.9815 23.826C16.3335 24.3466 15.3906 24.6648 14.1526 24.7805V27.1061H12.5212V24.8499ZM12.5212 15.5128C12.0121 15.5475 11.6592 15.6227 11.4625 15.7384C11.2774 15.8541 11.1848 16.0508 11.1848 16.3285V17.3004C11.1848 17.7864 11.6303 18.0409 12.5212 18.064V15.5128ZM14.1526 22.9062C14.9393 22.7789 15.3327 22.4838 15.3327 22.021V21.0491C15.3327 20.7599 15.2459 20.5401 15.0724 20.3896C14.9104 20.2392 14.6038 20.1467 14.1526 20.112V22.9062Z" fill="url(#paint5_linear_348_131)"/>
<defs>
<linearGradient id="paint0_linear_348_131" x1="23.8613" y1="12.1846" x2="33.3435" y2="12.5564" gradientUnits="userSpaceOnUse">
<stop stop-color="#F9A041"/>
<stop offset="0.80127" stop-color="#FFF85B"/>
</linearGradient>
<linearGradient id="paint1_linear_348_131" x1="26.6338" y1="12.9034" x2="30.7885" y2="12.9965" gradientUnits="userSpaceOnUse">
<stop stop-color="#F9A041"/>
<stop offset="0.80127" stop-color="#FFF85B"/>
</linearGradient>
<linearGradient id="paint2_linear_348_131" x1="19.7998" y1="0" x2="33.4963" y2="0.537067" gradientUnits="userSpaceOnUse">
<stop stop-color="#F9A041"/>
<stop offset="0.80127" stop-color="#FFF85B"/>
</linearGradient>
<linearGradient id="paint3_linear_348_131" x1="23.8047" y1="1.03821" x2="30.0365" y2="1.18482" gradientUnits="userSpaceOnUse">
<stop stop-color="#F9A041"/>
<stop offset="0.80127" stop-color="#FFF85B"/>
</linearGradient>
<linearGradient id="paint4_linear_348_131" x1="0" y1="6.59998" x2="27.3931" y2="7.67411" gradientUnits="userSpaceOnUse">
<stop stop-color="#F9A041"/>
<stop offset="0.80127" stop-color="#FFF85B"/>
</linearGradient>
<linearGradient id="paint5_linear_348_131" x1="8.00879" y1="8.67639" x2="19.4348" y2="8.92281" gradientUnits="userSpaceOnUse">
<stop stop-color="#F9A041"/>
<stop offset="0.80127" stop-color="#FFF85B"/>
</linearGradient>
</defs>
</svg>
