<svg width="26" height="26" viewBox="0 0 26 26" fill="none" xmlns="http://www.w3.org/2000/svg">
<circle cx="13" cy="13" r="12.25" stroke="#FFEFDD" stroke-width="1.5"/>
<path d="M12.0267 17.1549C11.1904 17.1342 10.0856 17.0413 8.71242 16.8761V15.095C9.46614 15.2293 10.0289 15.317 10.4006 15.3583C10.9581 15.4513 11.5002 15.4977 12.0267 15.4977V12.9268H11.7325C9.58488 12.9268 8.51109 12.0492 8.51109 10.2939V9.76737C8.51109 8.97235 8.78986 8.3735 9.34741 7.97083C9.90495 7.55783 10.7981 7.31519 12.0267 7.24292V6.12782H13.4826V7.21194C14.5976 7.26357 15.563 7.33068 16.3787 7.41328V9.07043C15.0365 8.90523 14.0711 8.81747 13.4826 8.80715V11.0993H13.6839C14.8196 11.0993 15.6353 11.3109 16.1309 11.7343C16.6265 12.1576 16.8743 12.8029 16.8743 13.6702V14.1348C16.8743 15.0641 16.5852 15.7662 16.007 16.2411C15.4288 16.7057 14.5873 16.9897 13.4826 17.0929V19.1682H12.0267V17.1549ZM12.0267 8.82263C11.5724 8.85361 11.2575 8.92072 11.082 9.02397C10.9168 9.12722 10.8342 9.30274 10.8342 9.55054V10.4178C10.8342 10.8515 11.2317 11.0786 12.0267 11.0993V8.82263ZM13.4826 15.4203C14.1846 15.3067 14.5357 15.0434 14.5357 14.6304V13.7631C14.5357 13.505 14.4583 13.3088 14.3034 13.1746C14.1588 13.0404 13.8852 12.9578 13.4826 12.9268V15.4203Z" fill="#FFEFDD"/>
</svg>
