<svg width="121" height="121" viewBox="0 0 121 121" fill="none" xmlns="http://www.w3.org/2000/svg">
<rect width="120.491" height="120.491" rx="41.6358" fill="url(#paint0_linear_1621_385)"/>
<path d="M81.1441 63.5258C80.0251 62.1127 80.3452 61.484 81.1441 60.2209C81.1585 60.2065 90.3955 47.4425 91.3472 43.1138L91.3529 43.1109C91.8259 41.5335 91.3529 40.3741 89.066 40.3741H81.4988C79.5724 40.3741 78.6841 41.3691 78.2083 42.4822C78.2083 42.4822 74.3554 51.7048 68.9049 57.6831C67.1458 59.4105 66.3325 59.9642 65.3722 59.9642C64.8993 59.9642 64.1639 59.4105 64.1639 57.8331V43.1109C64.1639 41.2191 63.6246 40.3741 62.0298 40.3741H50.131C48.9227 40.3741 48.2046 41.2566 48.2046 42.0785C48.2046 43.8723 50.9298 44.2847 51.2124 49.3314V60.2815C51.2124 62.6808 50.777 63.1221 49.8109 63.1221C47.2385 63.1221 40.9949 53.862 37.2949 43.2638C36.548 41.2076 35.8184 40.377 33.8775 40.377H26.3074C24.1474 40.377 23.7119 41.372 23.7119 42.4851C23.7119 44.4519 26.2843 54.2311 35.6742 67.1508C41.9322 75.9697 50.7453 80.7482 58.7624 80.7482C63.5813 80.7482 64.1696 79.687 64.1696 77.8615C64.1696 69.4348 63.7342 68.6389 66.148 68.6389C67.2669 68.6389 69.1933 69.1926 73.6922 73.4463C78.8341 78.4902 79.6791 80.7482 82.5572 80.7482H90.1244C92.2815 80.7482 93.3745 79.687 92.7458 77.5933C91.3068 73.1896 81.5824 64.1314 81.1441 63.5258Z" fill="white"/>
<defs>
<linearGradient id="paint0_linear_1621_385" x1="120.491" y1="0" x2="1.43637e-05" y2="120.491" gradientUnits="userSpaceOnUse">
<stop stop-color="#5181B7"/>
<stop offset="1" stop-color="#70B0F8"/>
</linearGradient>
</defs>
</svg>
