<svg width="122" height="121" viewBox="0 0 122 121" fill="none" xmlns="http://www.w3.org/2000/svg">
<rect x="0.549805" width="120.491" height="120.491" rx="41.6358" fill="url(#paint0_linear_1621_384)"/>
<path d="M43.7561 79.3269H73.3556L71.9419 74.7497L75.3235 77.6517L78.4227 80.4292L84.069 85.1476V40.465C83.9279 37.6875 81.5365 35.3273 78.5722 35.3273L43.7665 35.3335C40.8042 35.3335 38.4004 37.6979 38.4004 40.4754V74.1871C38.4004 77.1161 40.8001 79.3269 43.7561 79.3269ZM65.6521 47.1243L65.5836 47.1492L65.6085 47.1243H65.6521ZM49.8113 49.7586C53.6163 46.9894 57.1432 47.1222 57.1432 47.1222L57.4276 47.4025C52.7715 48.513 50.6603 50.593 50.6603 50.593C50.6603 50.593 51.225 50.317 52.211 49.8956C58.4821 47.4295 65.3304 47.608 71.67 50.7301C71.67 50.7301 69.5547 48.785 65.185 47.5395L65.5711 47.1596C66.1752 47.1617 69.372 47.2738 72.793 49.7752C72.793 49.7752 76.6209 56.3141 76.6209 64.3476C76.4943 64.194 74.2461 67.806 68.4607 67.9305C68.4607 67.9305 67.4809 66.822 66.7834 65.8547C70.1671 64.8832 71.4333 62.9402 71.4333 62.9402C70.3228 63.6397 69.3097 64.0549 68.4877 64.4701C67.2235 65.0264 65.9573 65.3004 64.6931 65.5807C58.7063 66.5522 55.3455 64.9268 52.1695 63.6377L51.0838 63.0855C51.0838 63.0855 52.348 65.0285 55.5967 66C54.7435 66.9736 53.8987 68.08 53.8987 68.08C48.1154 67.943 46.0063 64.331 46.0063 64.331C46.0063 56.285 49.8113 49.7586 49.8113 49.7586Z" fill="white"/>
<path d="M66.0258 61.8379C67.5017 61.8379 68.7036 60.5924 68.7036 59.0563C68.7036 57.5305 67.5079 56.285 66.0258 56.285V56.2912C64.5561 56.2912 63.3521 57.5326 63.3479 59.0687C63.3479 60.5924 64.5498 61.8379 66.0258 61.8379Z" fill="white"/>
<path d="M56.4395 61.8379C57.9154 61.8379 59.1173 60.5924 59.1173 59.0563C59.1173 57.5305 57.9237 56.285 56.4478 56.285L56.4395 56.2912C54.9636 56.2912 53.7617 57.5326 53.7617 59.0687C53.7617 60.5924 54.9636 61.8379 56.4395 61.8379Z" fill="white"/>
<defs>
<linearGradient id="paint0_linear_1621_384" x1="121.041" y1="0" x2="0.549819" y2="120.491" gradientUnits="userSpaceOnUse">
<stop stop-color="#86A1FF"/>
<stop offset="1" stop-color="#5467AA"/>
</linearGradient>
</defs>
</svg>
